HIERARCHY
ROOT Hips
{
	OFFSET 0.000000 0.000000 0.000000 
	CHANNELS 6 Xposition Yposition Zposition Yrotation Zrotation Xrotation 
	JOINT Lumbar
	{
		OFFSET 0.000000 0.000000 0.000000 
		CHANNELS 3 Zrotation Xrotation Yrotation
		JOINT Neck
		{
			OFFSET 0.000000 0.445665 0.000000 
			CHANNELS 3 Zrotation Xrotation Yrotation
			End Site
			{
				OFFSET 0.000000 0.227535 0.000000 
			}
		}
		JOINT RightShoulder
		{
			OFFSET 0.019635 0.377685 0.194865 
			CHANNELS 3 Zrotation Xrotation Yrotation
			JOINT RightElbow
			{
				OFFSET 0.000000 -0.243375 0.000000 
				CHANNELS 2 Zrotation Yrotation
				JOINT RightWrist
				{
					OFFSET 0.000000 -0.264825 0.000000 
					CHANNELS 2 Zrotation Xrotation
					End Site
					{
						OFFSET 0.006600 -0.176220 0.000990 
					}
				}
			}
		}
		JOINT LeftShoulder
		{
			OFFSET 0.019635 0.377685 -0.194865 
			CHANNELS 3 Zrotation Xrotation Yrotation
			JOINT LeftElbow
			{
				OFFSET 0.000000 -0.243375 0.000000 
				CHANNELS 2 Zrotation Yrotation
				JOINT LeftWrist
				{
					OFFSET 0.000000 -0.264825 0.000000 
					CHANNELS 2 Zrotation Xrotation
					End Site
					{
						OFFSET 0.006600 -0.176220 -0.000990 
					}
				}
			}
		}
	}
	JOINT RightHip
	{
		OFFSET 0.052140 -0.069960 0.075570 
		CHANNELS 3 Zrotation Xrotation Yrotation
		JOINT RightKnee
		{
			OFFSET 0.000000 -0.402270 0.000000 
			CHANNELS 1 Zrotation
			JOINT RightAnkle
			{
				OFFSET 0.000000 -0.404085 0.000000 
				CHANNELS 3 Zrotation Xrotation Yrotation
				End Site
				{
					OFFSET 0.204105 -0.089430 0.008415 
				}
			}
		}
	}
	JOINT LeftHip
	{
		OFFSET 0.052140 -0.069960 -0.075570 
		CHANNELS 3 Zrotation Xrotation Yrotation
		JOINT LeftKnee
		{
			OFFSET 0.000000 -0.402270 0.000000 
			CHANNELS 1 Zrotation
			JOINT LeftAnkle
			{
				OFFSET 0.000000 -0.404085 0.000000 
				CHANNELS 3 Zrotation Xrotation Yrotation
				End Site
				{
					OFFSET 0.204105 -0.089430 -0.008415 
				}
			}
		}
	}
}
MOTION
Frames: 20
Frame Time: 0.02
0 0.95578 0 183.02767 0 -2.49168 1.60267 2.35419 -3.05792 -22.94962 5.27888 1.00045 -23.53131 -71.95803 -79.05205 21.09973 79.31598 -15.93389 -2.5943 -13.36003 65.81115 71.34362 23.04624 -74.89239 -26.73873 2.09887 -3.33651 0.44392 6.56953 -6.93752 -1.26707 -2.82492 -6.18311 -1.1814 4.35952 0.71304 -7.4665 4.33322 0.71681 -2.01541
-7e-05 0.95577 -2e-05 183.04091 0 -2.49347 1.61268 2.3504 -3.06116 -23.0132 5.29376 1.00093 -23.34255 -71.97275 -78.93932 21.10773 79.25925 -15.92508 -2.58291 -13.2719 65.78365 71.28656 23.04133 -74.82505 -26.7069 2.09676 -3.34483 0.4476 6.55811 -6.93425 -1.26325 -2.82721 -6.17944 -1.18219 4.36424 0.70083 -7.46829 4.33567 0.71207 -2.0206
-0.00014 0.95576 -5e-05 183.05419 0 -2.49524 1.62253 2.34658 -3.06458 -23.07627 5.30835 1.00164 -23.15494 -71.98713 -78.82727 21.11566 79.20349 -15.91626 -2.57156 -13.18441 65.75638 71.22969 23.03637 -74.75844 -26.67543 2.09471 -3.35312 0.45127 6.54664 -6.93099 -1.25945 -2.8295 -6.17576 -1.18294 4.36894 0.68845 -7.47009 4.33811 0.7074 -2.02567
-0.00021 0.95575 -7e-05 183.06763 0 -2.497 1.6319 2.34267 -3.06878 -23.13763 5.32199 1.00326 -22.96998 -72.00021 -78.71657 21.12334 79.15172 -15.90732 -2.56006 -13.09922 65.72986 71.17294 23.03109 -74.69421 -26.64507 2.09291 -3.36134 0.45495 6.5347 -6.9279 -1.25566 -2.83175 -6.17172 -1.18355 4.37357 0.67489 -7.47204 4.34061 0.70308 -2.02984
-0.00028 0.95574 -9e-05 183.08006 0 -2.49887 1.64387 2.33932 -3.06883 -23.20771 5.34072 1.00001 -22.77084 -72.02009 -78.59838 21.13232 79.07966 -15.89904 -2.54914 -13.00255 65.6995 71.11549 23.02741 -74.61749 -26.60884 2.08982 -3.36987 0.45857 6.52507 -6.92408 -1.25182 -2.83416 -6.1692 -1.1849 4.3785 0.66712 -7.4733 4.34284 0.69705 -2.03827
-0.00034 0.95573 -0.00012 183.09472 0 -2.50048 1.65032 2.33474 -3.07769 -23.25951 5.34864 1.00712 -22.60199 -72.02563 -78.49641 21.13855 79.05 -15.88933 -2.53713 -12.92981 65.67721 71.0596 23.0204 -74.56719 -26.58505 2.08946 -3.37781 0.46233 6.51067 -6.92172 -1.24808 -2.83625 -6.16373 -1.1847 4.38283 0.64743 -7.47594 4.34561 0.69456 -2.03802
-0.00039 0.95572 -0.00017 183.11531 0 -2.50155 1.64115 2.32682 -3.11184 -23.25822 5.3261 1.04347 -22.5143 -71.98966 -78.43581 21.13693 79.14584 -15.87578 -2.52068 -12.92742 65.67805 71.00646 23.0032 -74.59182 -26.59612 2.09696 -3.38361 0.46652 6.4812 -6.92429 -1.24449 -2.8373 -6.14752 -1.17979 4.38544 0.59014 -7.48324 4.35033 0.7028 -2.00976
-0.00043 0.9557 -0.00022 183.13818 0 -2.50233 1.62648 2.31762 -3.15473 -23.23895 5.29273 1.09018 -22.45748 -71.93954 -78.39208 21.13258 79.28316 -15.86079 -2.50336 -12.94847 65.68687 70.95511 22.98279 -74.64282 -26.61961 2.10716 -3.38888 0.47085 6.44718 -6.92821 -1.24102 -2.83805 -6.12872 -1.17336 4.38748 0.52153 -7.49179 4.35552 0.71448 -1.97335
-0.00047 0.95568 -0.00028 183.16021 0 -2.50315 1.61459 2.30895 -3.19308 -23.22962 5.26468 1.13183 -22.38817 -71.89702 -78.34293 21.12964 79.39597 -15.84632 -2.48738 -12.95595 65.69154 70.9039 22.96447 -74.68051 -26.63715 2.11597 -3.39474 0.47507 6.41647 -6.93089 -1.23759 -2.83903 -6.11286 -1.16789 4.38985 0.4612 -7.49918 4.36018 0.72395 -1.94338
-0.00052 0.95566 -0.00033 183.18151 0 -2.50436 1.60156 2.3005 -3.23395 -23.21287 5.23494 1.17506 -22.31273 -71.84945 -78.28465 21.12598 79.53209 -15.83225 -2.46749 -12.97547 65.69852 70.84871 22.9435 -74.72374 -26.65615 2.12554 -3.39922 0.47949 6.38065 -6.93607 -1.2338 -2.83964 -6.08986 -1.16131 4.39194 0.38802 -7.50897 4.36613 0.73607 -1.90225
-0.00056 0.95565 -0.00038 183.20474 0 -2.50471 1.58955 2.2913 -3.27147 -23.20725 5.20618 1.21735 -22.25693 -71.80918 -78.24894 21.12316 79.63019 -15.8172 -2.45543 -12.97581 65.70246 70.8022 22.92725 -74.76176 -26.67483 2.13406 -3.40635 0.48352 6.35423 -6.93654 -1.23073 -2.84093 -6.08076 -1.15665 4.39445 0.33842 -7.51418 4.36957 0.74357 -1.88193
-0.0006 0.95565 -0.00042 183.23393 0 -2.50255 1.58204 2.28011 -3.29906 -23.23717 5.18244 1.25554 -22.25185 -71.79139 -78.27546 21.12363 79.60728 -15.79808 -2.46609 -12.91462 65.69714 70.77954 22.92528 -74.77828 -26.69177 2.14005 -3.42188 0.4865 6.35642 -6.92226 -1.2301 -2.84444 -6.11378 -1.15798 4.39842 0.36102 -7.50534 4.36533 0.73693 -1.92561
-0.00065 0.95565 -0.00046 183.26481 0 -2.49955 1.57569 2.26824 -3.32273 -23.27886 5.16012 1.29222 -22.2647 -71.78162 -78.32338 21.12501 79.54564 -15.77834 -2.48452 -12.83377 65.68829 70.76544 22.9281 -74.78879 -26.70757 2.14476 -3.43993 0.48908 6.36795 -6.90345 -1.2301 -2.84861 -6.16036 -1.16121 4.40281 0.40695 -7.49203 4.35865 0.72562 -1.98972
-0.00069 0.95565 -0.00049 183.29407 0 -2.49705 1.56858 2.25682 -3.34719 -23.31491 5.13738 1.32892 -22.26674 -71.76902 -78.3589 21.12574 79.50575 -15.76003 -2.49876 -12.76387 65.68036 70.74727 22.92842 -74.80248 -26.72241 2.1493 -3.45616 0.49183 6.37421 -6.88767 -1.22949 -2.85233 -6.19863 -1.16334 4.40688 0.43938 -7.48149 4.35353 0.7168 -2.04146
-0.00074 0.95565 -0.00053 183.3268 0 -2.49409 1.56225 2.2448 -3.37603 -23.35152 5.11333 1.36882 -22.28121 -71.75269 -78.40633 21.12725 79.45037 -15.73687 -2.51563 -12.68657 65.67559 70.73011 22.92994 -74.81511 -26.74383 2.15686 -3.47512 0.49465 6.38465 -6.86792 -1.2302 -2.85666 -6.24567 -1.16645 4.41144 0.48362 -7.4679 4.34659 0.70654 -2.10576
-0.00078 0.95565 -0.00057 183.35292 0 -2.49187 1.55464 2.23383 -3.39485 -23.39002 5.09246 1.40154 -22.27352 -71.74596 -78.43376 21.12753 79.41681 -15.72362 -2.52904 -12.61934 65.66332 70.71261 22.9302 -74.82828 -26.75125 2.1581 -3.48912 0.49723 6.38866 -6.85523 -1.22835 -2.8599 -6.27798 -1.16797 4.41511 0.50897 -7.45955 4.34279 0.69814 -2.14909
-0.00081 0.95564 -0.00061 183.35818 0 -2.49207 1.5431 2.22636 -3.38565 -23.43084 5.0804 1.41486 -22.20124 -71.76618 -78.40098 21.12317 79.45916 -15.73827 -2.52967 -12.58787 65.63068 70.69415 22.92562 -74.84423 -26.71919 2.13951 -3.48779 0.49903 6.37252 -6.86404 -1.21911 -2.85988 -6.26381 -1.1648 4.41611 0.47636 -7.46715 4.34862 0.69589 -2.1276
-0.00084 0.95562 -0.00065 183.35708 0 -2.49302 1.53026 2.21992 -3.36667 -23.47323 5.07146 1.42094 -22.1057 -71.79539 -78.3472 21.11782 79.52381 -15.76281 -2.5268 -12.5666 65.59059 70.67471 22.91989 -74.86127 -26.67328 2.11506 -3.48156 0.50064 6.34965 -6.87992 -1.2073 -2.85875 -6.23479 -1.15996 4.41623 0.42407 -7.4801 4.35763 0.69569 -2.08472
-0.00087 0.95561 -0.0007 183.36039 0 -2.49352 1.51809 2.21272 -3.35304 -23.51507 5.06092 1.43024 -22.02006 -71.81904 -78.30277 21.1135 79.57351 -15.7826 -2.52646 -12.53836 65.55429 70.65426 22.91451 -74.87728 -26.63431 2.09507 -3.47826 0.50247 6.32992 -6.89192 -1.19677 -2.85819 -6.21424 -1.1558 4.41684 0.38084 -7.49035 4.36493 0.69463 -2.05289
-0.0009 0.9556 -0.00073 183.35754 0 -2.49446 1.50561 2.20666 -3.33561 -23.55674 5.05125 1.43978 -21.93799 -71.84933 -78.25991 21.10641 79.64069 -15.80359 -2.5225 -12.51893 65.51644 70.64 22.90907 -74.89365 -26.59236 2.06756 -3.47213 0.50373 6.31008 -6.90654 -1.18577 -2.85738 -6.18702 -1.152 4.41708 0.33767 -7.50159 4.37322 0.6931 -2.01607
